<svg width="80" height="80" viewBox="0 0 80 80" fill="none" xmlns="http://www.w3.org/2000/svg">
<circle cx="40" cy="40" r="39.5" stroke="#4D4D4D"/>
<path fill-rule="evenodd" clip-rule="evenodd" d="M44.6593 50.4503H51.5006C51.5832 50.4574 51.6663 50.4421 51.7409 50.4061C51.8155 50.3701 51.8789 50.3147 51.9245 50.2458C51.97 50.1768 51.9959 50.0969 51.9996 50.0145C52.0032 49.9321 51.9843 49.8502 51.945 49.7776L48.0442 41.7055C47.8375 41.2789 47.5477 41.0636 46.943 41.0636H42.7853L51.5721 27.7447C51.6241 27.6698 51.6534 27.5817 51.6565 27.4907C51.6596 27.3998 51.6363 27.3099 51.5895 27.2317C51.5427 27.1536 51.4743 27.0904 51.3924 27.0498C51.3105 27.0092 51.2187 26.9929 51.1277 27.0028H44.0662C43.8557 26.9963 43.6473 27.0465 43.463 27.1479C43.2787 27.2494 43.1253 27.3985 43.019 27.5794L39.1434 33.4586L36.3226 27.6313C36.2484 27.4353 36.1126 27.2683 35.9355 27.1551C35.7584 27.0419 35.5493 26.9885 35.3392 27.0028H28.4979C28.4155 26.9964 28.3329 27.0121 28.2586 27.0482C28.1844 27.0844 28.1213 27.1397 28.0759 27.2085C28.0305 27.2772 28.0044 27.3568 28.0005 27.4389C27.9966 27.5211 28.0149 27.6028 28.0536 27.6755L31.9543 35.7476C32.1611 36.1723 32.4509 36.3876 33.0556 36.3876H37.2133L28.4264 49.7084C28.3751 49.7836 28.3465 49.8718 28.3439 49.9626C28.3412 50.0534 28.3648 50.143 28.4117 50.221C28.4586 50.299 28.5269 50.362 28.6086 50.4026C28.6903 50.4432 28.7819 50.4598 28.8727 50.4503H35.9324C36.1429 50.4568 36.3513 50.4066 36.5356 50.3052C36.7199 50.2037 36.8733 50.0546 36.9795 49.8737L40.8571 43.9926L43.6798 49.8218C43.7539 50.0171 43.889 50.1836 44.0654 50.2968C44.2417 50.4099 44.4499 50.4637 44.6593 50.4503Z" fill="#4D4D4D"/>
</svg>
