<svg width="205" height="28" viewBox="0 0 205 28" fill="none" xmlns="http://www.w3.org/2000/svg">
    <g clip-path="url(#clip0_4763_3172)">
        <path fill-rule="evenodd" clip-rule="evenodd"
              d="M49.6175 6.69931H38.0688V20.6993H44.5786C48.1656 20.6993 50.6124 19.3223 50.6124 16.201C50.6124 13.4813 48.9724 11.7829 45.138 11.7829H41.6867V9.89866H49.608V6.69931H49.6175ZM44.9714 14.7757C46.1757 14.7757 46.8588 15.1957 46.8588 16.1367C46.8588 17.1351 46.0496 17.4954 44.9547 17.4954H41.6867V14.7757H44.9714ZM63.4987 20.6947H67.3331L61.1447 6.69472H57.6506L51.3883 20.6947H55.1204L56.0963 18.3744H62.5228L63.4987 20.6947ZM59.331 10.7983L61.2589 15.3885H57.3816L59.331 10.7983ZM78.5462 20.6947H82.1736V6.69472H78.5462V11.9987L72.5338 11.978V6.69931H68.9041V20.6993H72.5338V15.276L78.5462 15.2967V20.6947V20.6947ZM89.0356 6.69472H85.4082V20.6947H89.0356V16.5636L90.5708 14.9249L94.779 20.6832H99.4227L93.4723 12.7262L99.2156 6.69931H94.6124L89.0356 12.8364V6.69931V6.69472ZM119.937 6.69472H115.653L112.607 11.1334L109.522 6.69931H105.237L110.236 13.596L104.999 20.6947H109.284L112.54 16.0151L115.775 20.6947H120.059L114.901 13.596L119.937 6.71079V6.69472ZM131.538 20.6947H135.166V6.69472H123.867V8.27374C123.867 16.3892 123.37 17.4311 121.606 17.4311C121.426 17.4341 121.247 17.4272 121.068 17.4105V20.6947C121.6 20.7984 122.141 20.8515 122.684 20.8531C124.8 20.8531 127.166 20.0337 127.349 12.5908L127.411 10.0983H131.538V20.6947V20.6947ZM151.77 20.6947H155.4V6.69472H151.779V20.6947H151.77ZM144.399 14.2295C146.077 14.2295 146.617 14.7895 146.617 15.836C146.617 16.9836 146.055 17.5964 144.399 17.5964H142.13V14.2295H144.399ZM142.13 6.69931H138.51V20.6993H144.399C148.233 20.6993 150.349 19.079 150.349 15.781C150.349 12.7423 148.335 11.1426 144.46 11.1426H142.13V6.69931ZM168.326 20.6993H171.954V6.69931H168.334V11.9987L162.321 11.978V6.69931H158.692V20.6993H162.321V15.276L168.334 15.2967V20.6947L168.326 20.6993ZM174.396 13.7016C174.396 18.0623 177.609 21.0183 182.172 21.0183C186.735 21.0183 189.946 18.021 189.946 13.7016C189.946 9.34095 186.732 6.38489 182.172 6.38489C177.547 6.38489 174.396 9.46259 174.396 13.7016ZM178.128 13.7016C178.128 11.3032 179.766 9.58423 182.174 9.58423C184.495 9.58423 186.221 11.3032 186.221 13.7016C186.221 16.1 184.666 17.819 182.174 17.819C179.811 17.819 178.128 16.1 178.128 13.7016ZM192.388 20.6993H199.333C202.608 20.6993 204.993 19.4783 204.993 16.5406C204.993 14.801 204.082 13.6419 202.527 13.121C203.853 12.561 204.517 11.6636 204.517 10.2842C204.517 8.18423 203.289 6.7039 199.5 6.7039H192.395V20.7039L192.388 20.6993ZM199.166 14.9616C200.64 14.9616 201.221 15.3816 201.221 16.3616C201.221 17.3806 200.506 17.8006 199.188 17.8006H196.022V14.957L199.166 14.9616ZM198.928 9.60259C200.318 9.60259 200.773 10.0616 200.773 10.8832C200.773 11.7049 200.23 12.2603 198.99 12.2603H196.022V9.598L198.928 9.60259Z"
              fill="black" fill-opacity="0.7"/>
        <path fill-rule="evenodd" clip-rule="evenodd"
              d="M20.5197 27.9998H28.9479C29.0497 28.0083 29.152 27.9901 29.2439 27.9471C29.3358 27.9041 29.414 27.8379 29.4701 27.7556C29.5262 27.6733 29.5582 27.5778 29.5626 27.4794C29.5671 27.381 29.5438 27.2833 29.4954 27.1965L24.6898 17.5572C24.4351 17.0477 24.0781 16.7906 23.3331 16.7906H18.2109L29.036 0.885715C29.1001 0.796335 29.1362 0.691078 29.14 0.58248C29.1438 0.473882 29.1151 0.366517 29.0575 0.273171C28.9998 0.179825 28.9155 0.104432 28.8146 0.0559679C28.7138 0.00750407 28.6006 -0.0119877 28.4886 -0.000186421H19.789C19.5296 -0.00793362 19.2729 0.0519367 19.0458 0.173114C18.8188 0.294291 18.6299 0.472286 18.4989 0.688338L13.7243 7.70899L10.2493 0.750305C10.1578 0.51628 9.99053 0.316902 9.77231 0.181722C9.55409 0.0465422 9.29651 -0.0172453 9.03774 -0.000186421H0.60953C0.507994 -0.0078815 0.406177 0.0108499 0.314712 0.0540517C0.223247 0.0972536 0.145488 0.163341 0.0895548 0.245414C0.0336215 0.327487 0.00156563 0.422534 -0.00326574 0.520632C-0.00809711 0.618729 0.0144733 0.716278 0.0620887 0.803092L4.86767 10.4424C5.12235 10.9496 5.47937 11.2067 6.22437 11.2067H11.3465L0.521463 27.1139C0.458242 27.2037 0.422937 27.309 0.419708 27.4174C0.416479 27.5258 0.44546 27.6329 0.503238 27.726C0.561015 27.8191 0.645181 27.8943 0.745822 27.9429C0.846462 27.9914 0.959384 28.0111 1.07128 27.9998H9.76846C10.0278 28.0076 10.2846 27.9477 10.5116 27.8265C10.7387 27.7053 10.9276 27.5273 11.0585 27.3113L15.8355 20.2883L19.313 27.2493C19.4042 27.4826 19.5707 27.6814 19.788 27.8165C20.0052 27.9516 20.2617 28.0159 20.5197 27.9998V27.9998Z"
              fill="url(#paint0_linear_4763_3172)"/>
    </g>
    <defs>
        <linearGradient id="paint0_linear_4763_3172" x1="1.7782" y1="6.01522" x2="27.4459" y2="22.9691"
                        gradientUnits="userSpaceOnUse">
            <stop stop-color="#00D5D9"/>
            <stop offset="1" stop-color="#F000EC"/>
        </linearGradient>
        <clipPath id="clip0_4763_3172">
            <rect width="205" height="28" fill="white"/>
        </clipPath>
    </defs>
</svg>
